# xmcd
#
# Track frame offsets: 
#        150
#        14210
#        27250
#        44905
#        59725
#        82565
#        106260
#        124830
#        141260
#        154080
#        170567
#        188380
#        210042
#        229870
#        241727
#        256845
#        268845
#        298492
#        309175
#        319402
#
# Disc length: 4424 seconds
#
# Revision: 0
# Processed by: cddbd v1.5.2PL0 Copyright (c) Steve Scherf et al.
# Submitted via: ExactAudioCopy v1.0b3
#
DISCID=1d114614
DTITLE=Various Artist - サヴォイのゴスペル黄金時代
DYEAR=1900
DGENRE=
TTITLE0=The Ward Singers - Surely God Is Able
TTITLE1=The Blind Boys of Alabama - Somethings Got A Hold On Me
TTITLE2=Jemes Cleveland - I've Come A Long Way
TTITLE3=Bill Moss - Just The Two Of Us
TTITLE4=The Soul Stirrers - God Said It
TTITLE5=The Southwest Michigan State Choir - Write My Name Above
TTITLE6=Dr.C.J.Johnson - I Want To Go Whrere Jesus Is
TTITLE7=The Roberta Martin Singers - God Specializes
TTITLE8=The Gospel Harmonettes - Lift Him Up
TTITLE9=The Gospel Clefs - So Good
TTITLE10=Cleophas Robinson - How Sweet It Is
TTITLE11=Rosie Wallace - God Cares
TTITLE12=The Rasberry Singers - Deliverance Will Come
TTITLE13=The Imperial Gospel Singers - In My Father's House
TTITLE14=The Davis Sisters - He'll Understand
TTITLE15=The Staple Singers - Sit Down
TTITLE16=The Caravans - Mary Don't You Weep
TTITLE17=The Angelic Choir - I've Got It
TTITLE18=The Gospel Wonders - As Long As I've Got Jesus
TTITLE19=The Ward Singers - This Little Light Of Mine
EXTD=
EXTT0=
EXTT1=
EXTT2=
EXTT3=
EXTT4=
EXTT5=
EXTT6=
EXTT7=
EXTT8=
EXTT9=
EXTT10=
EXTT11=
EXTT12=
EXTT13=
EXTT14=
EXTT15=
EXTT16=
EXTT17=
EXTT18=
EXTT19=
PLAYORDER=
